<svg id="Layer_1" data-name="Layer 1" xmlns="http://www.w3.org/2000/svg" viewBox="0 0 113.55 119.71"><title>outside-o</title><path d="M59,3.45C24.4,3.45,4.47,28.81,4.47,62.19c0,32.44,21.73,57.52,54.53,57.52,31.23,0,52-22.71,54.41-53.21a57,57,0,0,0-1-15.84C107.64,24.72,89,3.45,59,3.45Zm3.05,98.88v-.1c-16.34.12-26.32-25.94-26.32-48.88,0-13.21,5-33.26,20.05-33.26,20,0,26.56,32.18,26.56,47.89C82.34,82.76,77.53,102.34,62.05,102.34Z" fill="#e51e2c"/><path d="M55,.5C20.43.5.5,25.94.5,59.24.5,91.66,22.25,116.78,55,116.78v0c31.23,0,52-22.71,54.41-53.21a65.6,65.6,0,0,0-1-15.84C103.75,21.77,85.06.5,55,.5Zm3.11,98.94-.08-.1c-16.34.12-26.3-25.94-26.3-48.88,0-13.21,5-33.26,20.11-33.26,20,0,26.56,32.18,26.56,47.89C78.43,79.87,73.62,99.44,58.14,99.44Z" fill="#f3c716" stroke="#ed1c24"/></svg>